<svg xmlns="http://www.w3.org/2000/svg" xmlns:xlink="http://www.w3.org/1999/xlink" width="390.06mm" height="150.27mm" viewBox="0 0 1105.67 425.95">
  <defs>
    <style>
      .cls-1 {
        fill: url(#Dégradé_sans_nom);
      }

      .cls-2 {
        fill: #141412;
      }
    </style>
    <linearGradient id="Dégradé_sans_nom" data-name="Dégradé sans nom" x1="102.76" y1="62.55" x2="273.83" y2="62.55" gradientUnits="userSpaceOnUse">
      <stop offset="0" stop-color="#fff"/>
      <stop offset="1"/>
    </linearGradient>
  </defs>
  <title>logo_cinema_chexbres</title>
  <g id="cinema">
    <polygon class="cls-1" points="273.83 55.48 102.76 118.74 247.36 6.36 273.83 55.48"/>
    <path class="cls-2" d="M335.16,409.55h19.6c8.71,0,18,1.91,18,13.07,0,11.43-10.35,13.07-18,13.07H288.32c-7.62,0-18-1.63-18-13.07,0-11.16,9.26-13.07,18-13.07H309V315.07H288.32c-7.62,0-18-1.63-18-13.07,0-11.16,9.26-13.07,18-13.07h27.5c15,0,19.33,2.72,19.33,18.24ZM295.68,236.11c0-9.26,5.17-12.25,12.25-12.25h15c7.08,0,12.25,3,12.25,12.25v12.52c0,9.26-5.17,12.25-12.25,12.25h-15c-7.08,0-12.25-3-12.25-12.25Z" transform="translate(-47.71 -207.97)"/>
    <path class="cls-2" d="M466.2,341.75v76c0,9-1.9,18-13.07,18s-13.07-9-13.07-18V308.26c0-9.53,1.09-19.33,13.07-19.33,11.71,0,13.07,9.8,13.07,19.06v3.54l21.24-13.89c6.81-4.36,14.16-8.71,22.6-8.71h19.33c10.07,0,16.34,2.72,24.23,9.53,11.71,10.07,11.16,21.24,11.71,35.39L568,416.08c.27,9.26-1.09,19.6-12.8,19.6-10.62,0-12.8-9-13.07-17.7l-2.72-80.59c-.54-16.06-1.9-22.33-17.7-22.33H513a15.77,15.77,0,0,0-8.17,2.45Z" transform="translate(-47.71 -207.97)"/>
    <path class="cls-2" d="M684,435.68c-10.89,0-15.25,0-23.42-7.08l-11.16-9.8c-10.35-9.26-13.34-15.25-13.34-29.4V339c0-13.89,1.91-22.05,12.8-31.31l9.26-7.89c12.25-10.62,18.24-10.89,28.86-10.89h24c12.8,0,18.79,1.36,28.86,9.53l10.62,8.44c12,9.53,13.61,19.6,13.61,34v21c0,15-2.45,19.33-18,19.33H662.21v8.71c0,2.45,1.91,5.72,3.81,7.62l6.54,7.08c3.54,3.81,8.71,4.9,17.43,4.9h56.09c8.71,0,18,1.91,18,13.07,0,11.43-10.35,13.07-18,13.07Zm-21.78-80.59h75.69V339.3c0-4.9.27-9-3.27-12.25l-10.07-8.71c-3.27-3-8.44-3.27-12.52-3.27H690c-4.9,0-9,0-13.34,3l-9,6.53c-3.27,2.45-5.45,4.36-5.45,12Zm67.25-129.87a11.5,11.5,0,0,1,5.45-1.36c7.89,0,15,9.53,14.43,17.43a10.09,10.09,0,0,1-5.72,8.71l-52,25.59a11.12,11.12,0,0,1-4.9,1.36c-6.81,0-12-7.35-12-13.89a10.13,10.13,0,0,1,5.17-9.26Z" transform="translate(-47.71 -207.97)"/>
    <path class="cls-2" d="M911.84,332.76v84.95c0,9-1.91,18-13.07,18s-13.07-9-13.07-18v-87.4c0-4.36.55-12.52-6.26-12.52-3,0-4.9,2.45-7.08,4.36l-11.44,10.62v84.95c0,9-1.9,18-13.07,18s-13.07-9-13.07-18V307.44c0-9.26,2.45-18.52,13.62-18.52,6.53,0,10.89,4.36,12.52,10.35l2.18-1.63c6.81-5.17,10.89-8.71,19.88-8.71,10.07,0,18,4.9,24,13.07l2.18-2.18c8.17-8.17,11.43-10.89,22.87-10.89a27,27,0,0,1,21.78,10.62c6.53,8.44,6,16.06,6.26,26.14l2.72,90.39c.27,9.26-1.09,19.6-12.8,19.6-10.62,0-12.8-9-13.07-17.7l-2.72-86.31c-.27-4.63,1.09-13.89-6-13.89-3.81,0-8.71,6.53-10.89,9Z" transform="translate(-47.71 -207.97)"/>
    <path class="cls-2" d="M1069.23,315.07c-7.62,0-18-1.63-18-13.07,0-11.16,9.26-13.07,18-13.07h35.94c13.61,0,23.41,1.36,33.76,11.71,10.08,10.07,11.44,18,11.71,31l2.72,88.76c.27,7.62-3.54,15.25-12.25,15.25-6.81,0-13.61-5.72-13.34-13.07l-18,9.26c-7.35,3.81-7.62,3.81-16.06,3.81h-25c-11.71,0-20.15-1.36-29.68-9.26-10.89-9-13.62-18.51-13.62-32.13V382.86c0-12.52,3-20.42,12.8-29.13,9-7.89,19.06-9.8,30.5-9.8h56.09v-6c0-19.6-4.36-22.87-23.14-22.87Zm-.27,55c-7.08,0-17.43,1.91-17.43,11.43v17.43c0,8.71,10.62,10.62,16.88,10.62h28.86l28.86-15v-5.72c0-14.43-4.08-18.79-18.52-18.79Z" transform="translate(-47.71 -207.97)"/>
    <ellipse class="cls-2" cx="265.95" cy="28.34" rx="29.45" ry="28.34"/>
    <g>
      <path d="M192.78,237.47c0-10.35-7.62-13.61-13.61-13.61H133.81c20.72,0,39.73,9,54.59,24C191,245.69,192.78,242.32,192.78,237.47Z" transform="translate(-47.71 -207.97)"/>
      <path d="M132.88,223.86a55.17,55.17,0,0,0-18.2,2.66,71,71,0,0,1,19.13-2.66Z" transform="translate(-47.71 -207.97)"/>
      <path d="M188.45,411.62c-14.87,15-33.9,24.07-54.64,24.07h45.36c6.26,0,13.61-3.81,13.61-13.61C192.78,417.06,191,413.74,188.45,411.62Z" transform="translate(-47.71 -207.97)"/>
      <path d="M131.52,435.68h2.29a71,71,0,0,1-20.42-3A50.17,50.17,0,0,0,131.52,435.68Z" transform="translate(-47.71 -207.97)"/>
      <path d="M90.68,409.82l-25-50.64c-4.63-9.26-7.35-18-7.35-28.59,0-12,2.18-19.33,7.62-30.22L91,250c6.15-12.49,13.41-19.9,23.73-23.48-38.34,10.7-67,52.85-67,103.26,0,49.84,28,91.61,65.68,102.89C103.47,428.87,96.4,421.44,90.68,409.82Z" transform="translate(-47.71 -207.97)"/>
      <path d="M179.17,408.46H134.79c-12.25,0-15-.82-20.42-12l-23.14-47.1c-3.27-6.54-5.72-11.16-5.72-18.79,0-8.44,2.18-13.34,5.72-20.69l23.69-47.38c5.17-10.35,7.08-11.43,18.79-11.43h45.47a14.39,14.39,0,0,0,9.23-3.21c-14.86-15-33.87-24-54.59-24a71,71,0,0,0-19.13,2.66c-10.32,3.58-17.58,11-23.73,23.48l-25,50.37c-5.45,10.89-7.62,18.24-7.62,30.22,0,10.62,2.72,19.33,7.35,28.59l25,50.64c5.72,11.62,12.79,19.05,22.71,22.84a71,71,0,0,0,20.42,3c20.75,0,39.78-9,54.64-24.07A14.54,14.54,0,0,0,179.17,408.46Z" transform="translate(-47.71 -207.97)"/>
    </g>
  </g>
  <g id="chexbres">
    <g>
      <path d="M284.72,529.92c0-5.43-4-7.14-7.14-7.14h-23.8c10.87,0,20.85,4.73,28.64,12.6A6.82,6.82,0,0,0,284.72,529.92Z" transform="translate(-47.71 -207.97)"/>
      <path d="M282.45,621.29c-7.8,7.89-17.79,12.63-28.67,12.63h23.8c3.29,0,7.14-2,7.14-7.14A6.78,6.78,0,0,0,282.45,621.29Z" transform="translate(-47.71 -207.97)"/>
      <path d="M231.14,620.35,218,593.78a32.09,32.09,0,0,1-3.86-15c0-6.29,1.14-10.14,4-15.86l13.14-26.43c3.23-6.55,7-10.44,12.45-12.32-20.12,5.62-35.14,27.73-35.14,54.18,0,26.15,14.69,48.07,34.46,54C237.85,630.35,234.14,626.45,231.14,620.35Z" transform="translate(-47.71 -207.97)"/>
      <path d="M277.57,619.64H254.29c-6.43,0-7.86-.43-10.71-6.29l-12.14-24.71c-1.71-3.43-3-5.86-3-9.86,0-4.43,1.14-7,3-10.86l12.43-24.86c2.71-5.43,3.71-6,9.86-6h23.86a7.55,7.55,0,0,0,4.84-1.68c-7.8-7.87-17.77-12.6-28.64-12.6a37.23,37.23,0,0,0-10,1.39c-5.41,1.88-9.22,5.77-12.45,12.32l-13.14,26.43c-2.86,5.71-4,9.57-4,15.86a32.09,32.09,0,0,0,3.86,15l13.14,26.57c3,6.1,6.71,10,11.92,12a37.26,37.26,0,0,0,10.71,1.59c10.89,0,20.87-4.74,28.67-12.63A7.63,7.63,0,0,0,277.57,619.64Z" transform="translate(-47.71 -207.97)"/>
    </g>
    <path class="cls-2" d="M356.27,570.63a8.27,8.27,0,0,0-4.29,1.29L331.7,584.63v39.86c0,4.71-1,9.43-6.86,9.43s-6.86-4.71-6.86-9.43V538.06c0-4.71,1-9.43,6.86-9.43s6.86,4.71,6.86,9.43v30.72l11.14-7.29c3.57-2.29,7.72-4.57,12.29-4.57h9.14c2.71,0,7.57,0,13.29,5,6.14,5.29,5.86,11.14,6.14,18.57l1.43,43.15c.14,4.86-.57,10.29-6.72,10.29-5.57,0-6.71-4.71-6.86-9.29l-1.43-42.29c-.28-6.57.14-11.71-7.57-11.71Z" transform="translate(-47.71 -207.97)"/>
    <path class="cls-2" d="M446,633.92c-5.71,0-8,0-12.29-3.71l-5.86-5.14c-5.43-4.86-7-8-7-15.43V583.2c0-7.29,1-11.57,6.72-16.43l4.86-4.14c6.43-5.57,9.57-5.71,15.14-5.71h12.57c6.72,0,9.86.71,15.14,5l5.57,4.43c6.29,5,7.14,10.29,7.14,17.86v11c0,7.86-1.29,10.14-9.43,10.14h-44v4.57a6.71,6.71,0,0,0,2,4l3.43,3.71c1.86,2,4.57,2.57,9.14,2.57h29.43c4.57,0,9.43,1,9.43,6.86s-5.43,6.86-9.43,6.86Zm-11.43-42.29h39.72v-8.29c0-2.57.14-4.71-1.71-6.43l-5.29-4.57c-1.71-1.57-4.43-1.71-6.57-1.71H449.12c-2.57,0-4.71,0-7,1.57l-4.71,3.43c-1.71,1.29-2.86,2.29-2.86,6.29Z" transform="translate(-47.71 -207.97)"/>
    <path class="cls-2" d="M548,595.49l-21-24.86c-1.57-2-3.29-3.86-3.29-6.43a7.14,7.14,0,0,1,6.86-7.29c4.14,0,6.86,4.29,9.29,7.29l17.43,21.43,17.43-21.43c2.43-3,5.14-7.29,9.29-7.29a7.14,7.14,0,0,1,6.86,7.29c0,2.57-1.71,4.43-3.29,6.43l-21,24.86,21,24.86c1.57,2,3.29,3.86,3.29,6.43a7,7,0,0,1-6.86,7.14c-4.14,0-6.86-4.14-9.29-7.14l-17.43-21.43-17.43,21.43c-2.43,3-5.14,7.14-9.29,7.14a7,7,0,0,1-6.86-7.14c0-2.57,1.72-4.43,3.29-6.43Z" transform="translate(-47.71 -207.97)"/>
    <path class="cls-2" d="M640.25,566.92l2.43-2.43c4.57-4.57,7.29-7.57,13.57-7.57H671.4c3.57,0,6.72,2,10.14,4.86l4.71,4c5.43,4.71,7.43,8.57,7.43,15.86v27.57c0,7.29-2,11.14-7.43,15.86l-4.71,4c-3.29,2.71-7.29,4.86-10.71,4.86H656.68c-5.57,0-9.43-3.43-13.29-7l-3.14-3v.86c0,4.43-1.43,9.14-6.86,9.14-5.86,0-6.86-4.86-6.86-9.57V538.06c0-4.71,1-9.43,6.86-9.43s6.86,4.71,6.86,9.43Zm0,34c0,4.43.57,6.14,4.14,9.14l7.86,6.72c1.71,1.43,3.86,3.43,5.29,3.43H668a6.15,6.15,0,0,0,4.29-1.29l6-5c1.57-1.29,1.71-4.57,1.71-7.29V582.35c0-2.71-.71-4.86-1.86-5.71l-6.29-4.86a4.82,4.82,0,0,0-3.29-1.14H659a9.27,9.27,0,0,0-5.71,2.43l-8.86,7.71c-2.29,1.86-4.14,4-4.14,8.14Z" transform="translate(-47.71 -207.97)"/>
    <path class="cls-2" d="M729.39,567.06c0-5,.57-10.14,6.86-10.14,5.43,0,6.86,4.57,6.86,9.14v5.57l10.72-8.86c3.86-3.14,7.86-5.86,12.14-5.86h11a18.1,18.1,0,0,1,13.43,5.43c4.57,4.57,6.14,9.29,6.14,15.57,0,4.71-.86,9.57-6.72,9.57-5,0-7-4-7-8.43,0-2.29,0-4-1.43-6-1.72-2.43-5-2.43-8.29-2.43h-4c-2.57,0-4.43,1.29-6.86,3.29L743.1,589.78v34.72c0,4.71-1,9.43-6.86,9.43s-6.86-4.71-6.86-9.43Z" transform="translate(-47.71 -207.97)"/>
    <path class="cls-2" d="M857.38,633.92c-5.71,0-8,0-12.29-3.71l-5.86-5.14c-5.43-4.86-7-8-7-15.43V583.2c0-7.29,1-11.57,6.72-16.43l4.86-4.14c6.43-5.57,9.57-5.71,15.14-5.71h12.57c6.72,0,9.86.71,15.14,5l5.57,4.43c6.29,5,7.14,10.29,7.14,17.86v11c0,7.86-1.29,10.14-9.43,10.14H846v4.57a6.71,6.71,0,0,0,2,4l3.43,3.71c1.86,2,4.57,2.57,9.14,2.57H890c4.57,0,9.43,1,9.43,6.86s-5.43,6.86-9.43,6.86ZM846,591.63h39.72v-8.29c0-2.57.14-4.71-1.71-6.43l-5.29-4.57c-1.71-1.57-4.43-1.71-6.57-1.71H860.53c-2.57,0-4.71,0-7,1.57l-4.71,3.43c-1.71,1.29-2.86,2.29-2.86,6.29Z" transform="translate(-47.71 -207.97)"/>
    <path class="cls-2" d="M958.52,570.63c-2.86,0-7.72-.57-7.72,3.86,0,2.29,1.71,3.14,3.71,4l34.29,15.57c8.86,4,13.43,9.57,13.43,19.43,0,13.86-9.43,20.43-22.57,20.43H958.52c-7.14,0-12-.29-17.14-4.29-2.57-2-6.29-4.57-6.29-8a7,7,0,0,1,7.14-6.86,6.61,6.61,0,0,1,5.29,2.43c2.43,2.71,6.72,3,11,3h18.57c4.86,0,11.43.43,11.43-7.57,0-3.29-4-5.43-7.14-6.86l-32.29-14.72c-7.57-3.43-12-7.86-12-16.72,0-10.86,8.57-17.43,18.86-17.43h23.43c7.57,0,10.71.43,15.86,4.71,2.57,2.14,5.43,3.86,5.43,7.72a7,7,0,0,1-7,6.86c-2.57,0-4.14-1-5.86-2.86-2.29-2.43-4.71-2.71-8.43-2.71Z" transform="translate(-47.71 -207.97)"/>
  </g>
</svg>
